name rise34.3697peak60.0498fall86.3158.mot
datacolumns 19
datarows 26
range 12.30994900000000 12.35162100000000
endheader
time	ground_force1_vx	ground_force1_vy	ground_force1_vz	ground_force1_px	ground_force1_py	ground_force1_pz	ground_force2_vx	ground_force2_vy	ground_force2_vz	ground_force2_px	ground_force2_py	ground_force2_pz	ground_torque1_x	ground_torque1_y	ground_torque1_z	ground_torque2_x	ground_torque2_y	ground_torque2_z	
12.30994900000000	-5.41392200000000	40.93375600000000	-7.79906600000000	0.44460500000000	0.00000000000000	0.10337800000000	-34.07736700000000	763.52728999999999	-60.00580700000000	0.24637500000000	0.00000000000000	-0.08452900000000	0.00000000000000	-7.18934900000000	0.00000000000000	0.00000000000000	-32.39923000000000	0.00000000000000	
12.31161800000000	-5.93133700000000	48.15421600000000	-8.75178400000000	0.44221600000000	0.00000000000000	0.10467400000000	-34.26166700000000	760.61819100000002	-59.71417300000000	0.24533600000000	0.00000000000000	-0.08447900000000	0.00000000000000	-8.05707100000000	0.00000000000000	0.00000000000000	-32.19507700000000	0.00000000000000	
12.31329100000000	-6.34161700000000	55.50957900000000	-9.60994400000000	0.44025100000000	0.00000000000000	0.10583300000000	-34.46288700000000	757.61247700000001	-59.40077100000000	0.24426700000000	0.00000000000000	-0.08442800000000	0.00000000000000	-8.84401600000000	0.00000000000000	0.00000000000000	-31.98533300000000	0.00000000000000	
12.31495000000000	-6.62872300000000	62.90767500000000	-10.35246900000000	0.43865100000000	0.00000000000000	0.10687600000000	-34.68103100000000	754.51022699999999	-59.06527400000000	0.24316900000000	0.00000000000000	-0.08437500000000	0.00000000000000	-9.53312600000000	0.00000000000000	0.00000000000000	-31.77005200000000	0.00000000000000	
12.31661600000000	-6.78256300000000	70.27728399999999	-10.96534300000000	0.43736900000000	0.00000000000000	0.10782200000000	-34.91603500000000	751.31143699999996	-58.70738000000000	0.24204400000000	0.00000000000000	-0.08432100000000	0.00000000000000	-10.11351200000000	0.00000000000000	0.00000000000000	-31.54929200000000	0.00000000000000	
12.31828200000000	-6.79893900000000	77.57048100000000	-11.44169700000000	0.43636800000000	0.00000000000000	0.10868400000000	-35.16776400000000	748.01601900000003	-58.32681100000000	0.24089300000000	0.00000000000000	-0.08426500000000	0.00000000000000	-10.58046400000000	0.00000000000000	0.00000000000000	-31.32311400000000	0.00000000000000	
12.31994900000000	-6.67903300000000	84.76268800000000	-11.78129900000000	0.43561600000000	0.00000000000000	0.10947400000000	-35.43601200000000	744.62380099999996	-57.92331400000000	0.23971800000000	0.00000000000000	-0.08420800000000	0.00000000000000	-10.93494800000000	0.00000000000000	0.00000000000000	-31.09158200000000	0.00000000000000	
12.32162100000000	-6.42854000000000	91.85077699999999	-11.98958500000000	0.43508700000000	0.00000000000000	0.11020100000000	-35.72050200000000	741.13452199999995	-57.49666600000000	0.23852200000000	0.00000000000000	-0.08414900000000	0.00000000000000	-11.18273900000000	0.00000000000000	0.00000000000000	-30.85476200000000	0.00000000000000	
12.32328300000000	-6.05659300000000	98.84975200000000	-12.07640100000000	0.43475800000000	0.00000000000000	0.11087300000000	-36.02088300000000	737.54783399999997	-57.04667400000000	0.23730600000000	0.00000000000000	-0.08408900000000	0.00000000000000	-11.33329400000000	0.00000000000000	0.00000000000000	-30.61272400000000	0.00000000000000	
12.32495200000000	-5.57458800000000	105.78850600000000	-12.05459900000000	0.43460900000000	0.00000000000000	0.11149600000000	-36.33673100000000	733.86329699999999	-56.57317800000000	0.23607200000000	0.00000000000000	-0.08402600000000	0.00000000000000	-11.39852500000000	0.00000000000000	0.00000000000000	-30.36553600000000	0.00000000000000	
12.32661700000000	-4.99504500000000	112.70518700000000	-11.93863200000000	0.43462500000000	0.00000000000000	0.11207500000000	-36.66754900000000	730.08038699999997	-56.07604800000000	0.23482300000000	0.00000000000000	-0.08396000000000	0.00000000000000	-11.39158200000000	0.00000000000000	0.00000000000000	-30.11327000000000	0.00000000000000	
12.32828300000000	-4.33057400000000	119.64260299999999	-11.74326800000000	0.43479100000000	0.00000000000000	0.11261500000000	-37.01276400000000	726.19849099999999	-55.55519400000000	0.23356100000000	0.00000000000000	-0.08389300000000	0.00000000000000	-11.32573500000000	0.00000000000000	0.00000000000000	-29.85599900000000	0.00000000000000	
12.32995800000000	-3.59301600000000	126.64404000000000	-11.48249500000000	0.43509400000000	0.00000000000000	0.11312000000000	-37.37173200000000	722.21691399999997	-55.01055900000000	0.23228900000000	0.00000000000000	-0.08382200000000	0.00000000000000	-11.21343700000000	0.00000000000000	0.00000000000000	-29.59379600000000	0.00000000000000	
12.33162300000000	-2.79280100000000	133.74973399999999	-11.16868500000000	0.43552300000000	0.00000000000000	0.11359300000000	-37.74373300000000	718.13487999999995	-54.44212800000000	0.23100800000000	0.00000000000000	-0.08374900000000	0.00000000000000	-11.06560400000000	0.00000000000000	0.00000000000000	-29.32673300000000	0.00000000000000	
12.33328800000000	-1.93852900000000	140.99417700000001	-10.81201500000000	0.43606800000000	0.00000000000000	0.11403700000000	-38.12797600000000	713.95153500000004	-53.84992300000000	0.22972300000000	0.00000000000000	-0.08367300000000	0.00000000000000	-10.89113000000000	0.00000000000000	0.00000000000000	-29.05488400000000	0.00000000000000	
12.33495100000000	-1.03676900000000	148.40429000000000	-10.42017300000000	0.43672000000000	0.00000000000000	0.11445500000000	-38.52359800000000	709.66595299999994	-53.23401000000000	0.22843500000000	0.00000000000000	-0.08359400000000	0.00000000000000	-10.69663100000000	0.00000000000000	0.00000000000000	-28.77831800000000	0.00000000000000	
12.33662000000000	-0.09205200000000	155.99847399999999	-9.99828800000000	0.43747000000000	0.00000000000000	0.11484800000000	-38.92966400000000	705.27714300000002	-52.59449900000000	0.22714800000000	0.00000000000000	-0.08351100000000	0.00000000000000	-10.48640600000000	0.00000000000000	0.00000000000000	-28.49710700000000	0.00000000000000	
12.33828400000000	0.89297300000000	163.78642099999999	-9.54908300000000	0.43831100000000	0.00000000000000	0.11521900000000	-39.34517100000000	700.78404899999998	-51.93154200000000	0.22586300000000	0.00000000000000	-0.08342500000000	0.00000000000000	-10.26256600000000	0.00000000000000	0.00000000000000	-28.21131800000000	0.00000000000000	
12.33995300000000	1.91726900000000	171.76958999999999	-9.07316200000000	0.43923600000000	0.00000000000000	0.11556900000000	-39.76904600000000	696.18556599999999	-51.24534000000000	0.22458500000000	0.00000000000000	-0.08333500000000	0.00000000000000	-10.02530200000000	0.00000000000000	0.00000000000000	-27.92101700000000	0.00000000000000	
12.34161900000000	2.98105800000000	179.94216700000001	-8.56942700000000	0.44023900000000	0.00000000000000	0.11590000000000	-40.20015400000000	691.48053800000002	-50.53614000000000	0.22331600000000	0.00000000000000	-0.08324200000000	0.00000000000000	-9.77324800000000	0.00000000000000	0.00000000000000	-27.62626500000000	0.00000000000000	
12.34328500000000	4.08543800000000	188.29236200000000	-8.03552900000000	0.44131400000000	0.00000000000000	0.11621200000000	-40.63729000000000	686.66777300000001	-49.80423700000000	0.22205900000000	0.00000000000000	-0.08314400000000	0.00000000000000	-9.50388300000000	0.00000000000000	0.00000000000000	-27.32712200000000	0.00000000000000	
12.34495500000000	5.23199300000000	196.80388199999999	-7.46834100000000	0.44245500000000	0.00000000000000	0.11650800000000	-41.07919400000000	681.74604899999997	-49.04997600000000	0.22081700000000	0.00000000000000	-0.08304200000000	0.00000000000000	-9.21395600000000	0.00000000000000	0.00000000000000	-27.02364200000000	0.00000000000000	
12.34662200000000	6.42243500000000	205.45742799999999	-6.86440900000000	0.44365700000000	0.00000000000000	0.11678800000000	-41.52454100000000	676.71412399999997	-48.27375400000000	0.21959200000000	0.00000000000000	-0.08293500000000	0.00000000000000	-8.89987700000000	0.00000000000000	0.00000000000000	-26.71587600000000	0.00000000000000	
12.34828700000000	7.65829400000000	214.23212000000001	-6.22033800000000	0.44491500000000	0.00000000000000	0.11705300000000	-41.97195500000000	671.57074799999998	-47.47601500000000	0.21838900000000	0.00000000000000	-0.08282400000000	0.00000000000000	-8.55806900000000	0.00000000000000	0.00000000000000	-26.40387000000000	0.00000000000000	
12.34995700000000	8.94067100000000	223.10674900000001	-5.53311500000000	0.44622500000000	0.00000000000000	0.11730400000000	-42.42000400000000	666.31467399999997	-46.65725800000000	0.21721000000000	0.00000000000000	-0.08270800000000	0.00000000000000	-8.18525700000000	0.00000000000000	0.00000000000000	-26.08766300000000	0.00000000000000	
12.35162100000000	10.27006300000000	232.06079399999999	-4.80034700000000	0.44758200000000	0.00000000000000	0.11754200000000	-42.86720700000000	660.94466899999998	-45.81803300000000	0.21605800000000	0.00000000000000	-0.08258800000000	0.00000000000000	-7.77868500000000	0.00000000000000	0.00000000000000	-25.76729100000000	0.00000000000000	
